<?xml version="1.0" encoding="UTF-8" standalone="no"?>
<svg
   width="59.054001mm"
   height="85.929001mm"
   viewBox="0 0 59.054001 85.929003"
   version="1.1"
   id="svg8"
   inkscape:version="1.3.2 (091e20e, 2023-11-25, custom)"
   sodipodi:docname="logo.svg"
   xml:space="preserve"
   xmlns:inkscape="http://www.inkscape.org/namespaces/inkscape"
   xmlns:sodipodi="http://sodipodi.sourceforge.net/DTD/sodipodi-0.dtd"
   xmlns="http://www.w3.org/2000/svg"
   xmlns:svg="http://www.w3.org/2000/svg"
   xmlns:rdf="http://www.w3.org/1999/02/22-rdf-syntax-ns#"
   xmlns:cc="http://creativecommons.org/ns#"
   xmlns:dc="http://purl.org/dc/elements/1.1/"><defs
     id="defs2"><clipPath
       clipPathUnits="userSpaceOnUse"
       id="clipPath413"><path
         id="path415"
         style="fill:#ff0000;fill-opacity:1;fill-rule:nonzero;stroke:none;stroke-width:0.264583"
         d="m -126.38867,13.588318 v 5.792928 c 1.11296,-0.453302 2.29026,-0.71602 3.79926,-0.907955 2.00906,-0.25554 2.88165,0.07106 4.75526,0.315743 0.43943,0.05738 0.88189,0.08639 1.32292,0.129708 1.71342,0.06088 3.14758,0.201674 4.35063,0.627352 1.17372,0.14251 2.4013,0.107612 3.59668,0.178283 2.69331,-5.235805 1.48739,-3.773919 13.365596,1.99006 0.562512,0.272963 -0.204997,1.23614 -0.372071,1.838647 -0.141943,0.511876 -0.320373,1.013036 -0.510563,1.509469 0.275963,0.02401 0.549343,0.05735 0.81907,0.102319 0.421286,-12.324816 13.076206,-12.122083 13.076206,0.626835 v 8.301819 c 0.03014,0.372631 0.0114,0.74681 -0.0016,1.120862 0.498895,0.915315 0.753345,1.916081 0.980302,2.927469 0.01802,0.03653 0.03299,0.06679 0.06563,0.133842 0.653286,2.422583 0.70226,1.824622 0.620117,4.075721 -0.01,0.274283 -0.07041,0.544682 -0.10025,0.817523 -0.02101,0.192111 0.01622,0.532966 0.01913,0.67541 0.02461,0.908489 0.02891,1.817174 0.02479,2.725931 -7.94e-4,0.193135 0.02156,0.388321 -0.0036,0.57981 -0.08972,0.68272 -0.221015,1.359054 -0.335381,2.03812 -2.03e-4,0.01146 4.3e-5,0.01757 0,0.02635 -0.01738,0.123807 -0.07393,0.421098 -0.07131,0.367938 -1.03e-4,0.0011 -5.29e-4,0.0021 -5.29e-4,0.0031 -0.254545,2.425985 0.06427,1.286525 -0.740524,3.462837 -0.0067,0.01225 -0.01349,0.02445 -0.02016,0.03669 0.06026,0.558313 0.06476,1.073227 0.04961,1.591635 2.324566,-0.58888 7.744651,-1.288978 9.90844,-1.593702 0.33868,-0.05449 0.677254,-0.108966 1.015957,-0.163298 1.108679,-0.990579 2.262381,-1.715799 3.506248,-2.502172 0.0011,-0.0029 0.0024,-0.0058 0.0036,-0.0088 0.01,-0.02548 -0.0482,0.0259 -0.07235,0.03876 0.177287,-0.454814 0.319688,-0.9251 0.531752,-1.364774 0.259821,-0.538702 0.587129,-1.042059 0.880565,-1.563214 0.652418,-0.933032 1.419082,-1.772039 2.144572,-2.645315 0.567793,-0.683458 0.276715,-0.426698 0.944129,-1.261422 0.202882,-0.253738 0.415173,-0.50002 0.624768,-0.748276 0.0177,-0.141163 0.03247,-0.280583 0.02997,-0.413411 -0.01,-0.531572 0.01254,-1.063197 0.03049,-1.594734 -0.515038,-1.057055 -0.287073,-0.599588 -0.86868,-2.292366 0.0278,0.132472 0.13507,0.522412 0.0832,0.397391 -0.09698,-0.233738 -0.695712,-1.824524 -0.826823,-2.390034 -0.08259,-0.356254 -0.148141,-0.716172 -0.214456,-1.075904 -0.575984,-0.849424 -0.958162,-1.777051 -1.467096,-2.682524 -0.936569,-2.122842 0.04238,0.197443 -0.880565,-2.385901 -0.05247,-0.146868 0.15797,0.603144 0.105421,0.456303 -0.703956,-1.966902 -0.481746,-1.363689 -0.819589,-3.277836 -0.0563,-0.318994 0.101851,0.639766 0.152963,0.959631 -1.06127,-1.924196 -1.041194,-3.829196 -0.840261,-5.92832 0.838642,-2.432551 0.780619,-3.373365 2.708362,-5.086511 1.891112,-1.68059 2.45391,-1.569672 4.577498,-2.340426 0.753028,-0.27331 0.697746,-0.287012 0.472324,-0.238228 0.39497,-0.107307 0.889177,-0.242609 2.106848,-0.588595 1.076193,-0.225838 2.138172,-0.50291 3.196704,-0.794783 z m 45.400847,35.994186 c 0.01331,-0.09422 0.0344,-0.186984 0.05168,-0.280604 0.0063,-0.03793 0.01326,-0.07578 0.01963,-0.113686 0.0021,-0.119245 0.0118,-0.365257 0.0011,-0.274402 -0.03188,0.26879 -0.05028,0.458544 -0.07235,0.668692 z m 42.005189,-35.994186 c 0.06931,0.05086 0.193561,0.100829 0.389123,0.149345 0.855821,0.212313 1.70703,0.09776 2.559534,-0.149345 z m 19.799309,0 c 0.541725,1.421125 0.851416,3.16735 0.814937,5.245675 -0.0228,1.299192 -0.03063,1.913977 -0.02791,2.678906 0.334529,0.90765 0.821109,1.748708 1.063501,2.704227 0.164923,0.650135 0.600246,1.353629 0.359668,1.979725 -0.298729,0.777428 -0.539824,1.429732 -0.747758,2.002462 0.06879,0.377409 -0.02023,-0.121653 0.453202,2.280481 0.138888,0.704704 0.307207,1.404524 0.404627,2.11615 0.165407,1.208292 0.223631,2.423457 0.241845,3.640088 0.556379,2.120489 0.901101,4.303686 1.107426,6.481775 0.0546,0.576403 -0.52396,1.034304 -0.826306,1.528072 -0.125119,0.204335 -0.249876,0.400833 -0.375171,0.592728 l 0.113688,0.20929 c 0.394542,0.830739 0.906136,1.622698 1.337386,2.441194 V 13.588318 Z m -88.795615,5.742285 c -0.0298,-5.2e-5 -0.18836,0.250773 -0.22221,0.420646 0.032,0.0026 0.0642,0.0039 0.0961,0.0067 0.0401,-0.128204 0.0978,-0.292257 0.12661,-0.394808 0.006,-0.02261 0.005,-0.03255 -5.3e-4,-0.03256 z m 16.916281,8.158158 c 0.604618,0.677712 0.968298,1.349589 1.163235,2.0252 0.03217,0.04211 0.06479,0.08381 0.09664,0.12609 0.13789,-1.298501 -0.366639,-1.941586 -1.259872,-2.15129 z m 26.916703,7.167004 c -0.01506,-0.004 0.02874,0.217107 0.03617,0.299726 -0.02363,0.05333 0.02111,0.175463 0.08992,0.316775 -0.01236,-0.06561 -0.02387,-0.131377 -0.03669,-0.196887 -0.02633,-0.134388 -0.02342,-0.277951 -0.07907,-0.403077 -0.0048,-0.01082 -0.0082,-0.01596 -0.01035,-0.01654 z M -82.1924,35.393707 c -0.0032,0.128643 -0.0013,0.257061 0.0016,0.385506 0.0028,-0.08324 0.0098,-0.165016 0.03307,-0.209291 0.0021,-0.0041 0.0045,-0.0016 0.0067,-0.0031 -0.01228,-0.05301 -0.03265,-0.139295 -0.04134,-0.173114 z m 20.001363,8.470283 c -0.353891,0.178131 -0.391909,0.53448 -0.224793,0.988052 0.125153,-0.262996 0.237815,-0.531098 0.338997,-0.80305 -0.01013,-0.0132 -0.02148,-0.02551 -0.03152,-0.03876 -0.03485,-0.04603 -0.0606,-0.09549 -0.08268,-0.146243 z m -6.874516,8.767424 c -0.144737,0.0021 -0.70894,0.05942 -0.911055,0.157096 -0.0019,7.94e-4 -0.0044,0.0028 -0.0062,0.0036 0.297688,-0.04789 0.59535,-0.09535 0.892969,-0.143661 0.07386,-0.01199 0.07254,-0.01775 0.02429,-0.01707 z m -12.969234,0.97255 c -0.162799,0.293926 -0.324583,0.588142 -0.477491,0.887283 -0.128501,0.251397 0.305945,-0.476798 0.421679,-0.734322 0.02228,-0.04954 0.03681,-0.102137 0.05581,-0.152961 z m -2.638597,2.191597 c -0.03097,-0.0069 -0.117057,0.03106 -0.207225,0.07235 0.03307,0.02 0.06429,0.03951 0.09715,0.05943 0.02999,-0.01405 0.06048,-0.02668 0.09043,-0.04083 0.0072,-0.01238 0.01619,-0.02426 0.02326,-0.03669 0.01897,-0.03333 0.0159,-0.04991 -0.0036,-0.05426 z m 69.409199,2.074294 c -1.507986,3.576169 -4.503372,7.378009 -6.593912,9.727054 -0.403834,0.453768 -0.811877,0.907095 -1.221631,1.35909 0.179264,0.721387 0.264239,1.494912 0.149861,2.217952 0.302191,0.239448 0.606783,0.475882 0.906922,0.717786 -1.168091,3.001682 -1.50708,6.478055 -3.504179,9.005136 -0.639148,0.808762 -1.626735,1.174215 -2.682008,1.425236 -0.09015,1.044533 -0.197929,2.094278 -0.360701,3.129008 0.385548,1.695211 0.592736,3.463716 0.754994,5.195548 h 12.550654 z m -64.062756,3.49591 c -0.0377,0.0371 -0.07773,0.07512 -0.113173,0.11162 0.05515,0.161454 0.110715,0.322926 0.163814,0.485759 0.08986,-0.069 0.181478,-0.136033 0.274921,-0.201023 -0.097,-0.118999 -0.20478,-0.250764 -0.325562,-0.396356 z m -47.061729,3.055109 v 26.225791 h 19.12493 c 0.13714,-0.949928 0.56504,-2.028552 1.26866,-3.266469 -0.87188,-0.782452 -1.70333,-1.627986 -2.60708,-2.360578 0.94591,-1.768943 1.65554,-3.19279 2.20659,-4.365625 -0.0597,-0.04398 -0.1136,-0.09384 -0.17209,-0.139009 -1.01869,0.0679 -2.03729,0.139657 -3.0551,0.218591 -4.12296,0.319746 -13.96256,4.599818 -2.02624,-8.513176 -0.44724,-1.309388 -0.8472,-2.629 -1.23972,-3.903122 -3.28608,-0.62592 -6.53584,-1.431272 -9.69914,-2.533695 -1.17198,-0.386694 -2.50568,-0.451499 -3.51607,-1.160135 -0.0988,-0.06931 -0.18834,-0.134429 -0.28474,-0.202573 z m 94.509995,11.511442 c -0.0099,-0.0086 -0.04179,-0.0067 -0.100253,0.0083 -0.521475,0.133244 -1.061069,0.466307 -1.599385,0.819073 0.01894,0.01852 0.04282,0.0406 0.06149,0.05891 0.105357,-0.03293 0.211614,-0.06278 0.314712,-0.102835 0.393702,-0.152972 1.393078,-0.723286 1.323432,-0.783415 z" /></clipPath></defs><sodipodi:namedview
     id="base"
     pagecolor="#ffffff"
     bordercolor="#666666"
     borderopacity="1.0"
     inkscape:pageopacity="0.0"
     inkscape:pageshadow="2"
     inkscape:zoom="0.7"
     inkscape:cx="6.4285715"
     inkscape:cy="426.42857"
     inkscape:document-units="mm"
     inkscape:current-layer="layer1"
     inkscape:document-rotation="0"
     showgrid="false"
     units="px"
     inkscape:window-width="1920"
     inkscape:window-height="1129"
     inkscape:window-x="-8"
     inkscape:window-y="-8"
     inkscape:window-maximized="1"
     inkscape:showpageshadow="0"
     inkscape:pagecheckerboard="0"
     inkscape:deskcolor="#d1d1d1" /><metadata
     id="metadata5"><rdf:RDF><cc:Work
         rdf:about=""><dc:format>image/svg+xml</dc:format><dc:type
           rdf:resource="http://purl.org/dc/dcmitype/StillImage" /></cc:Work></rdf:RDF></metadata><g
     inkscape:label="Шар 1"
     inkscape:groupmode="layer"
     id="layer1"><g
       id="g19"
       transform="translate(-107.50293,4.1679469)"><path
         style="fill:#ffffff;stroke-width:0.88594"
         d="m 107.504,81.115917 c 5.9e-4,-0.354835 0.73332,-11.413404 1.62827,-24.574595 0.89496,-13.161192 1.86662,-27.542626 2.15924,-31.958743 l 0.53203,-8.029302 3.49292,-0.06448 3.49293,-0.06448 0.98472,-2.580626 c 1.46389,-3.83638 2.15602,-5.4161438 3.34049,-7.6245764 3.60694,-6.72504723 7.55223,-10.3900575 11.18134,-10.3869967 0.77495,6.535e-4 2.04136,0.00115 2.81424,0.00115 0.77289,0 2.0611,4.575e-4 2.86271,9.753e-4 2.07715,0.00142 3.69874,0.8473278 5.93017,3.0933967 0.97165,0.97803152 2.14483,2.3588801 2.60705,3.0685525 1.44934,2.2252255 3.65857,6.7744402 5.1838,10.6744076 l 1.468,3.753637 3.55331,0.06471 3.55331,0.06471 0.11555,0.756398 c 0.0636,0.416019 0.96382,14.533421 2.00062,31.372004 1.03678,16.838584 1.94517,31.169855 2.01865,31.847269 l 0.13358,1.231663 h -29.527 -29.527 z m 16.28761,-65.10215 c 0.46001,-1.518256 2.57218,-6.5309517 3.69424,-8.7673042 1.08366,-2.159837 2.7192,-4.8078983 4.54381,-7.35674991 l 0.41637,-0.5816483 -0.73047,0.51707361 c -2.71024,1.9184764 -6.02536,7.1377349 -8.48988,13.3663128 -1.39518,3.52602 -1.37346,3.350171 -0.41372,3.350171 0.64656,0 0.85351,-0.111508 0.97965,-0.527855 z m 23.29239,0.420977 c 0,-0.247141 -2.12225,-5.552571 -2.90388,-7.2594341 -1.8699,-4.083333 -5.05473,-8.64378973 -6.62395,-9.48502511 -1.32389,-0.70971599 -5.1976,4.09054501 -7.79489,9.65932451 -1.1941,2.5602527 -2.81913,6.5697947 -2.81913,6.9558437 0,0.154829 3.46857,0.236169 10.07093,0.236169 5.53901,0 10.07092,-0.04809 10.07092,-0.106878 z m 4.23637,-1.713875 c -2.4241,-6.5856028 -5.31522,-11.7556546 -7.89404,-14.11652087 -1.49541,-1.3690282 -1.89197,-1.4087198 -0.85079,-0.0851573 1.78376,2.26752747 4.11563,6.68377467 5.92921,11.22910717 0.63554,1.592856 1.15553,2.940585 1.15553,2.994953 0,0.05437 0.15951,0.481243 0.35446,0.948611 0.31057,0.744565 0.45481,0.849759 1.16514,0.849759 h 0.8107 z"
         id="path11" /><path
         id="path847"
         style="fill:#000000;stroke-width:1.75356"
         d="m 135.6319,27.751644 c -1.6793,-3.9e-5 -2.35055,0.06504 -3.63774,0.355167 -2.58163,0.581886 -5.31384,1.873019 -7.08118,3.346905 -3.85889,3.218191 -7.38542,10.344065 -8.20294,16.573997 -0.24378,1.857682 -0.1618,3.115077 0.3205,4.849804 0.59006,2.122308 1.93977,4.899616 3.21707,6.621572 0.62251,0.839204 1.1289,1.354289 1.62657,1.653387 0.78179,0.469849 2.06735,0.854938 2.39377,0.718338 0.0585,-0.02446 0.0705,-0.04263 0.10618,-0.158499 0.0829,-0.269006 0.16932,-0.889686 0.21634,-1.557073 0.0982,-1.394084 0.26998,-1.95838 0.59494,-1.95838 0.60114,0 1.06997,1.601881 1.34011,4.574906 0.0566,0.62254 0.093,1.138257 0.14823,2.124922 0.0267,0.479509 0.0614,1.048643 0.0781,1.264116 0.12676,1.641972 0.29899,2.188225 0.81329,2.576397 0.29708,0.224198 0.48908,0.292964 0.80527,0.292964 0.45508,0 1.02429,-0.190145 2.13737,-0.718338 1.26845,-0.601937 1.71941,-0.693515 2.47791,-0.497623 0.29305,0.07568 0.62956,0.208006 1.28603,0.505648 1.06213,0.481537 1.94713,0.841255 2.40579,0.975176 0.36023,0.105187 0.60339,0.14852 1.05567,0.19263 0.14498,0.01437 0.3124,0.01087 0.52884,-0.0082 0.62871,-0.05533 1.0589,-0.262677 1.30005,-0.626042 0.1749,-0.263531 0.27033,-0.515709 0.40864,-1.081524 0.19615,-0.802616 0.43234,-1.282482 0.81529,-1.661413 0.28208,-0.279141 0.62368,-0.447705 1.05366,-0.519693 0.16091,-0.02679 0.27154,-0.03068 0.53685,-0.02213 0.62962,0.02019 1.21299,0.166537 2.1574,0.543771 0.89133,0.355983 1.72891,0.602912 2.38977,0.704294 0.78749,0.120835 1.02595,0.09284 1.60453,-0.188592 0.4405,-0.214409 0.55579,-0.371744 0.58292,-0.800566 0.0225,-0.358895 -0.12269,-1.112342 -0.39462,-2.048677 -0.14269,-0.491274 -0.23704,-0.858238 -0.28646,-1.121653 -0.0527,-0.281276 -0.0725,-0.878756 -0.038,-1.193891 0.15951,-1.49516 0.80269,-3.603458 1.47032,-4.819703 0.21924,-0.399413 0.37003,-0.592183 0.5088,-0.650115 0.0637,-0.0264 0.0759,-0.0264 0.13621,0.0039 0.1963,0.09816 0.30779,0.59793 0.41866,1.876114 0.0883,1.018155 0.16293,1.471506 0.28844,1.753714 0.0946,0.212821 0.24755,0.330744 0.42668,0.331094 0.18905,3.65e-4 0.50363,-0.144949 0.92746,-0.429401 1.2928,-0.867744 2.70101,-2.612235 3.64775,-4.516714 0.39331,-0.791161 0.62923,-1.4157 0.80928,-2.144988 0.84639,-3.428491 0.51259,-7.308745 -0.95751,-11.140315 -0.89655,-2.336652 -2.30949,-4.740104 -3.84606,-6.537298 -2.14091,-2.504043 -4.93939,-4.514815 -8.17089,-5.871127 -1.30228,-0.546598 -3.04647,-1.098527 -3.98429,-1.262113 -1.128,-0.196746 -2.69984,-0.305001 -4.435,-0.305001 z m 8.75181,13.092655 c 1.05979,-0.02213 1.94258,0.136911 2.63014,0.473541 1.49444,0.731711 4.19287,3.472668 5.40653,5.491893 0.47405,0.788723 0.85126,1.748029 0.98957,2.512185 0.0508,0.280539 0.0626,0.910724 0.0221,1.191884 -0.14986,1.023509 -0.74422,2.033184 -1.59652,2.714844 -0.18789,0.150268 -0.63462,0.450489 -0.86937,0.583905 -0.915,0.519969 -2.31851,1.029683 -3.94423,1.434672 -0.76841,0.191465 -1.28669,0.284616 -1.80685,0.323056 -0.72291,0.05358 -1.2819,-0.03533 -1.88697,-0.300962 -0.61221,-0.268735 -1.41586,-0.893938 -2.25957,-1.757729 -0.65354,-0.669095 -0.9276,-1.132191 -1.13379,-1.920254 -0.14951,-0.571379 -0.31445,-1.773113 -0.39462,-2.877375 -0.0388,-0.532837 -0.0434,-1.659639 -0.0101,-2.096832 0.0858,-1.104161 0.26716,-1.973349 0.5709,-2.748956 0.54932,-1.402658 1.47025,-2.353371 2.68223,-2.77103 0.49964,-0.172206 0.91666,-0.238448 1.60053,-0.252815 z m -18.36498,0.730379 c 0.40494,-9.32e-4 0.48207,0.0038 0.65503,0.04213 0.82508,0.182418 1.65772,0.663174 2.39378,1.384513 0.6122,0.599953 1.04852,1.200445 1.44828,1.990485 0.78815,1.557589 1.15669,2.837571 1.35815,4.711347 0.0762,0.708386 0.09,1.671412 0.0322,2.165055 -0.17215,1.441358 -0.67457,2.416487 -1.60454,3.11816 -0.47522,0.358546 -0.68489,0.424617 -1.50637,0.467523 -0.42681,0.02213 -0.583,0.02174 -0.93748,-0.002 -1.47095,-0.0982 -3.53251,-0.610545 -4.57723,-1.135698 -1.32053,-0.663798 -1.97791,-1.672413 -2.16541,-3.328845 -0.0482,-0.425335 -0.0466,-1.597567 0.002,-2.215218 0.16684,-2.120378 0.54633,-3.454166 1.31407,-4.623062 0.39927,-0.607862 1.01976,-1.28444 1.70068,-1.852036 0.39274,-0.327366 0.8103,-0.557214 1.19789,-0.660149 0.22475,-0.05937 0.23871,-0.06131 0.68909,-0.0622 z m 10.38038,13.423737 c 0.8852,-0.02446 1.77987,0.223072 2.49994,0.708305 1.02498,0.690742 1.61624,1.785017 1.5184,2.817178 -0.0493,0.519915 -0.19646,0.837911 -0.49679,1.081524 -0.41538,0.336918 -1.05202,0.498096 -2.39177,0.607982 -0.95797,0.07859 -2.10157,0.205444 -3.18903,0.353149 -0.38725,0.05257 -0.82228,0.10973 -0.96753,0.126427 -0.24936,0.02873 -0.53923,0.03572 -0.64502,0.01592 -0.0768,-0.01437 -0.34042,-0.11571 -0.46473,-0.178574 -0.14242,-0.07199 -0.29379,-0.206724 -0.37457,-0.333074 -0.31573,-0.492843 -0.17192,-1.34349 0.41065,-2.41587 0.74882,-1.378428 1.92486,-2.350039 3.22509,-2.666689 0.28572,-0.06958 0.5803,-0.108255 0.87538,-0.11637 z" /></g></g></svg>
