<?xml version="1.0" encoding="UTF-8" standalone="no"?>
<svg
   width="420"
   height="291.245"
   viewBox="0 0 111.125 77.058574"
   version="1.1"
   id="svg8"
   inkscape:version="1.2.2 (732a01da63, 2022-12-09)"
   sodipodi:docname="rz_logo_black.svg"
   xml:space="preserve"
   xmlns:inkscape="http://www.inkscape.org/namespaces/inkscape"
   xmlns:sodipodi="http://sodipodi.sourceforge.net/DTD/sodipodi-0.dtd"
   xmlns="http://www.w3.org/2000/svg"
   xmlns:svg="http://www.w3.org/2000/svg"
   xmlns:rdf="http://www.w3.org/1999/02/22-rdf-syntax-ns#"
   xmlns:cc="http://creativecommons.org/ns#"
   xmlns:dc="http://purl.org/dc/elements/1.1/"><defs
     id="defs2"><clipPath
       clipPathUnits="userSpaceOnUse"
       id="clipPath413"><path
         id="path415"
         style="fill:#ff0000;fill-opacity:1;fill-rule:nonzero;stroke:none;stroke-width:0.264583"
         d="m -126.38867,13.588318 v 5.792928 c 1.11296,-0.453302 2.29026,-0.71602 3.79926,-0.907955 2.00906,-0.25554 2.88165,0.07106 4.75526,0.315743 0.43943,0.05738 0.88189,0.08639 1.32292,0.129708 1.71342,0.06088 3.14758,0.201674 4.35063,0.627352 1.17372,0.14251 2.4013,0.107612 3.59668,0.178283 2.69331,-5.235805 1.48739,-3.773919 13.365596,1.99006 0.562512,0.272963 -0.204997,1.23614 -0.372071,1.838647 -0.141943,0.511876 -0.320373,1.013036 -0.510563,1.509469 0.275963,0.02401 0.549343,0.05735 0.81907,0.102319 0.421286,-12.324816 13.076206,-12.122083 13.076206,0.626835 v 8.301819 c 0.03014,0.372631 0.0114,0.74681 -0.0016,1.120862 0.498895,0.915315 0.753345,1.916081 0.980302,2.927469 0.01802,0.03653 0.03299,0.06679 0.06563,0.133842 0.653286,2.422583 0.70226,1.824622 0.620117,4.075721 -0.01,0.274283 -0.07041,0.544682 -0.10025,0.817523 -0.02101,0.192111 0.01622,0.532966 0.01913,0.67541 0.02461,0.908489 0.02891,1.817174 0.02479,2.725931 -7.94e-4,0.193135 0.02156,0.388321 -0.0036,0.57981 -0.08972,0.68272 -0.221015,1.359054 -0.335381,2.03812 -2.03e-4,0.01146 4.3e-5,0.01757 0,0.02635 -0.01738,0.123807 -0.07393,0.421098 -0.07131,0.367938 -1.03e-4,0.0011 -5.29e-4,0.0021 -5.29e-4,0.0031 -0.254545,2.425985 0.06427,1.286525 -0.740524,3.462837 -0.0067,0.01225 -0.01349,0.02445 -0.02016,0.03669 0.06026,0.558313 0.06476,1.073227 0.04961,1.591635 2.324566,-0.58888 7.744651,-1.288978 9.90844,-1.593702 0.33868,-0.05449 0.677254,-0.108966 1.015957,-0.163298 1.108679,-0.990579 2.262381,-1.715799 3.506248,-2.502172 0.0011,-0.0029 0.0024,-0.0058 0.0036,-0.0088 0.01,-0.02548 -0.0482,0.0259 -0.07235,0.03876 0.177287,-0.454814 0.319688,-0.9251 0.531752,-1.364774 0.259821,-0.538702 0.587129,-1.042059 0.880565,-1.563214 0.652418,-0.933032 1.419082,-1.772039 2.144572,-2.645315 0.567793,-0.683458 0.276715,-0.426698 0.944129,-1.261422 0.202882,-0.253738 0.415173,-0.50002 0.624768,-0.748276 0.0177,-0.141163 0.03247,-0.280583 0.02997,-0.413411 -0.01,-0.531572 0.01254,-1.063197 0.03049,-1.594734 -0.515038,-1.057055 -0.287073,-0.599588 -0.86868,-2.292366 0.0278,0.132472 0.13507,0.522412 0.0832,0.397391 -0.09698,-0.233738 -0.695712,-1.824524 -0.826823,-2.390034 -0.08259,-0.356254 -0.148141,-0.716172 -0.214456,-1.075904 -0.575984,-0.849424 -0.958162,-1.777051 -1.467096,-2.682524 -0.936569,-2.122842 0.04238,0.197443 -0.880565,-2.385901 -0.05247,-0.146868 0.15797,0.603144 0.105421,0.456303 -0.703956,-1.966902 -0.481746,-1.363689 -0.819589,-3.277836 -0.0563,-0.318994 0.101851,0.639766 0.152963,0.959631 -1.06127,-1.924196 -1.041194,-3.829196 -0.840261,-5.92832 0.838642,-2.432551 0.780619,-3.373365 2.708362,-5.086511 1.891112,-1.68059 2.45391,-1.569672 4.577498,-2.340426 0.753028,-0.27331 0.697746,-0.287012 0.472324,-0.238228 0.39497,-0.107307 0.889177,-0.242609 2.106848,-0.588595 1.076193,-0.225838 2.138172,-0.50291 3.196704,-0.794783 z m 45.400847,35.994186 c 0.01331,-0.09422 0.0344,-0.186984 0.05168,-0.280604 0.0063,-0.03793 0.01326,-0.07578 0.01963,-0.113686 0.0021,-0.119245 0.0118,-0.365257 0.0011,-0.274402 -0.03188,0.26879 -0.05028,0.458544 -0.07235,0.668692 z m 42.005189,-35.994186 c 0.06931,0.05086 0.193561,0.100829 0.389123,0.149345 0.855821,0.212313 1.70703,0.09776 2.559534,-0.149345 z m 19.799309,0 c 0.541725,1.421125 0.851416,3.16735 0.814937,5.245675 -0.0228,1.299192 -0.03063,1.913977 -0.02791,2.678906 0.334529,0.90765 0.821109,1.748708 1.063501,2.704227 0.164923,0.650135 0.600246,1.353629 0.359668,1.979725 -0.298729,0.777428 -0.539824,1.429732 -0.747758,2.002462 0.06879,0.377409 -0.02023,-0.121653 0.453202,2.280481 0.138888,0.704704 0.307207,1.404524 0.404627,2.11615 0.165407,1.208292 0.223631,2.423457 0.241845,3.640088 0.556379,2.120489 0.901101,4.303686 1.107426,6.481775 0.0546,0.576403 -0.52396,1.034304 -0.826306,1.528072 -0.125119,0.204335 -0.249876,0.400833 -0.375171,0.592728 l 0.113688,0.20929 c 0.394542,0.830739 0.906136,1.622698 1.337386,2.441194 V 13.588318 Z m -88.795615,5.742285 c -0.0298,-5.2e-5 -0.18836,0.250773 -0.22221,0.420646 0.032,0.0026 0.0642,0.0039 0.0961,0.0067 0.0401,-0.128204 0.0978,-0.292257 0.12661,-0.394808 0.006,-0.02261 0.005,-0.03255 -5.3e-4,-0.03256 z m 16.916281,8.158158 c 0.604618,0.677712 0.968298,1.349589 1.163235,2.0252 0.03217,0.04211 0.06479,0.08381 0.09664,0.12609 0.13789,-1.298501 -0.366639,-1.941586 -1.259872,-2.15129 z m 26.916703,7.167004 c -0.01506,-0.004 0.02874,0.217107 0.03617,0.299726 -0.02363,0.05333 0.02111,0.175463 0.08992,0.316775 -0.01236,-0.06561 -0.02387,-0.131377 -0.03669,-0.196887 -0.02633,-0.134388 -0.02342,-0.277951 -0.07907,-0.403077 -0.0048,-0.01082 -0.0082,-0.01596 -0.01035,-0.01654 z M -82.1924,35.393707 c -0.0032,0.128643 -0.0013,0.257061 0.0016,0.385506 0.0028,-0.08324 0.0098,-0.165016 0.03307,-0.209291 0.0021,-0.0041 0.0045,-0.0016 0.0067,-0.0031 -0.01228,-0.05301 -0.03265,-0.139295 -0.04134,-0.173114 z m 20.001363,8.470283 c -0.353891,0.178131 -0.391909,0.53448 -0.224793,0.988052 0.125153,-0.262996 0.237815,-0.531098 0.338997,-0.80305 -0.01013,-0.0132 -0.02148,-0.02551 -0.03152,-0.03876 -0.03485,-0.04603 -0.0606,-0.09549 -0.08268,-0.146243 z m -6.874516,8.767424 c -0.144737,0.0021 -0.70894,0.05942 -0.911055,0.157096 -0.0019,7.94e-4 -0.0044,0.0028 -0.0062,0.0036 0.297688,-0.04789 0.59535,-0.09535 0.892969,-0.143661 0.07386,-0.01199 0.07254,-0.01775 0.02429,-0.01707 z m -12.969234,0.97255 c -0.162799,0.293926 -0.324583,0.588142 -0.477491,0.887283 -0.128501,0.251397 0.305945,-0.476798 0.421679,-0.734322 0.02228,-0.04954 0.03681,-0.102137 0.05581,-0.152961 z m -2.638597,2.191597 c -0.03097,-0.0069 -0.117057,0.03106 -0.207225,0.07235 0.03307,0.02 0.06429,0.03951 0.09715,0.05943 0.02999,-0.01405 0.06048,-0.02668 0.09043,-0.04083 0.0072,-0.01238 0.01619,-0.02426 0.02326,-0.03669 0.01897,-0.03333 0.0159,-0.04991 -0.0036,-0.05426 z m 69.409199,2.074294 c -1.507986,3.576169 -4.503372,7.378009 -6.593912,9.727054 -0.403834,0.453768 -0.811877,0.907095 -1.221631,1.35909 0.179264,0.721387 0.264239,1.494912 0.149861,2.217952 0.302191,0.239448 0.606783,0.475882 0.906922,0.717786 -1.168091,3.001682 -1.50708,6.478055 -3.504179,9.005136 -0.639148,0.808762 -1.626735,1.174215 -2.682008,1.425236 -0.09015,1.044533 -0.197929,2.094278 -0.360701,3.129008 0.385548,1.695211 0.592736,3.463716 0.754994,5.195548 h 12.550654 z m -64.062756,3.49591 c -0.0377,0.0371 -0.07773,0.07512 -0.113173,0.11162 0.05515,0.161454 0.110715,0.322926 0.163814,0.485759 0.08986,-0.069 0.181478,-0.136033 0.274921,-0.201023 -0.097,-0.118999 -0.20478,-0.250764 -0.325562,-0.396356 z m -47.061729,3.055109 v 26.225791 h 19.12493 c 0.13714,-0.949928 0.56504,-2.028552 1.26866,-3.266469 -0.87188,-0.782452 -1.70333,-1.627986 -2.60708,-2.360578 0.94591,-1.768943 1.65554,-3.19279 2.20659,-4.365625 -0.0597,-0.04398 -0.1136,-0.09384 -0.17209,-0.139009 -1.01869,0.0679 -2.03729,0.139657 -3.0551,0.218591 -4.12296,0.319746 -13.96256,4.599818 -2.02624,-8.513176 -0.44724,-1.309388 -0.8472,-2.629 -1.23972,-3.903122 -3.28608,-0.62592 -6.53584,-1.431272 -9.69914,-2.533695 -1.17198,-0.386694 -2.50568,-0.451499 -3.51607,-1.160135 -0.0988,-0.06931 -0.18834,-0.134429 -0.28474,-0.202573 z m 94.509995,11.511442 c -0.0099,-0.0086 -0.04179,-0.0067 -0.100253,0.0083 -0.521475,0.133244 -1.061069,0.466307 -1.599385,0.819073 0.01894,0.01852 0.04282,0.0406 0.06149,0.05891 0.105357,-0.03293 0.211614,-0.06278 0.314712,-0.102835 0.393702,-0.152972 1.393078,-0.723286 1.323432,-0.783415 z" /></clipPath></defs><sodipodi:namedview
     id="base"
     pagecolor="#ffffff"
     bordercolor="#666666"
     borderopacity="1.0"
     inkscape:pageopacity="0.0"
     inkscape:pageshadow="2"
     inkscape:zoom="0.98994949"
     inkscape:cx="85.862967"
     inkscape:cy="87.883272"
     inkscape:document-units="mm"
     inkscape:current-layer="layer1"
     inkscape:document-rotation="0"
     showgrid="false"
     units="px"
     inkscape:window-width="1920"
     inkscape:window-height="1027"
     inkscape:window-x="-8"
     inkscape:window-y="-8"
     inkscape:window-maximized="1"
     inkscape:showpageshadow="0"
     inkscape:pagecheckerboard="0"
     inkscape:deskcolor="#d1d1d1" /><metadata
     id="metadata5"><rdf:RDF><cc:Work
         rdf:about=""><dc:format>image/svg+xml</dc:format><dc:type
           rdf:resource="http://purl.org/dc/dcmitype/StillImage" /><dc:title /></cc:Work></rdf:RDF></metadata><g
     inkscape:label="Шар 1"
     inkscape:groupmode="layer"
     id="layer1"><path
       style="fill:#000000;stroke-width:1"
       d="m 32.332348,77.05146 c -1.28795,-0.05055 -2.45415,-0.28347 -3.650342,-0.729063 -0.19027,-0.07087 -0.257535,-0.104019 -0.401873,-0.198006 -0.637944,-0.415424 -0.942302,-0.982867 -0.917654,-1.710876 0.0096,-0.284165 0.0492,-0.492143 0.153009,-0.804018 0.208166,-0.625416 0.559063,-1.083308 1.074495,-1.402141 0.132599,-0.08202 0.479716,-0.24973 0.646639,-0.312419 0.312951,-0.117531 0.695609,-0.197086 1.182337,-0.245809 0.235814,-0.02363 1.038913,-0.03332 1.369262,-0.01656 0.290777,0.01474 0.448396,0.0263 0.778554,0.05706 0.566149,0.05274 0.738514,0.06042 1.356321,0.06039 0.481094,0 0.638462,-0.0039 0.809293,-0.01961 0.557194,-0.05144 0.965675,-0.127727 1.331192,-0.248618 0.198407,-0.06562 0.310334,-0.112337 0.494013,-0.206219 0.09096,-0.0465 0.1861,-0.08601 0.240006,-0.09968 0.284016,-0.07205 0.517365,-0.263987 0.748505,-0.615652 0.108493,-0.165058 0.120039,-0.221181 0.06105,-0.2967 -0.01328,-0.01701 -0.06291,-0.09621 -0.110284,-0.176028 -0.480997,-0.810283 -1.29315,-1.44857 -2.513277,-1.975229 -1.224961,-0.528742 -2.273434,-0.850764 -3.421498,-1.050849 -1.15588,-0.201448 -2.106538,-0.622826 -2.907994,-1.288972 -0.502026,-0.41726 -0.79889,-0.940048 -0.900747,-1.586228 -0.02836,-0.179885 -0.02842,-0.668731 -1.11e-4,-0.876468 0.03639,-0.267113 0.08946,-0.5022 0.14073,-0.623495 0.304497,-0.720312 1.098606,-1.550306 2.33413,-2.439596 0.820477,-0.590554 1.75301,-1.299582 2.171011,-1.650678 0.16396,-0.137716 0.418833,-0.375841 0.418833,-0.391303 0,-0.0089 -0.217141,-0.07741 -0.353859,-0.111595 -0.25359,-0.06339 -0.569726,-0.09939 -0.952226,-0.108413 -0.439187,-0.0104 -0.843412,0.0173 -1.490277,0.102034 -0.544144,0.07128 -0.639254,0.07783 -1.133059,0.07805 -0.371204,1.67e-4 -0.478075,-0.0034 -0.597227,-0.01955 -0.326519,-0.04444 -0.59642,-0.116763 -0.793172,-0.212521 -0.16419,-0.07991 -0.444978,-0.319529 -0.630057,-0.537667 -0.378566,-0.44619 -0.559161,-0.999129 -0.514816,-1.57623 0.05309,-0.69086 0.366274,-1.474058 0.78481,-1.96261 0.335573,-0.391708 0.77829,-0.65928 1.309519,-0.791468 0.203451,-0.05062 0.296754,-0.06005 0.664206,-0.06714 0.442124,-0.0085 1.022736,-0.03444 1.255852,-0.05609 0.756546,-0.0702 1.049849,-0.0843 1.749388,-0.0841 1.545824,5.29e-4 2.285646,0.06307 3.17355,0.268718 0.544688,0.126158 0.975315,0.261794 1.378649,0.434252 0.216022,0.09236 0.606408,0.290552 0.792437,0.402294 0.483596,0.290482 0.858397,0.645185 1.087611,1.02928 0.07301,0.122354 0.201275,0.396594 0.249821,0.534146 0.159758,0.452675 0.148325,0.984592 -0.03307,1.539635 -0.103645,0.317102 -0.427621,1.014245 -0.686876,1.478021 -0.338322,0.605223 -0.877183,1.380999 -1.632972,2.350931 -0.367264,0.471324 -0.821734,1.091805 -1.107893,1.512603 -0.140327,0.206343 -0.31002,0.472408 -0.31002,0.486076 0,0.0049 0.02807,0.02439 0.06243,0.0438 0.140306,0.07918 0.318983,0.234539 0.500776,0.435413 0.144597,0.159777 0.368292,0.380598 0.474961,0.468851 0.102174,0.08454 0.257397,0.184571 0.326522,0.21041 0.03224,0.01207 0.103817,0.02532 0.159075,0.02945 1.255795,0.09445 2.311548,0.387779 3.322766,0.923199 1.040171,0.550751 1.760051,1.169466 2.322869,1.99642 0.455793,0.669715 0.728926,1.387013 0.813998,2.13774 0.01789,0.157914 0.01794,0.622717 1.14e-4,0.78142 -0.03582,0.318333 -0.101942,0.618859 -0.202645,0.920955 -0.442282,1.32682 -1.531324,2.642616 -3.304443,3.992484 -1.351016,1.028516 -2.925706,1.723621 -4.59841,2.02983 -0.807391,0.147801 -1.783457,0.219136 -2.573898,0.188105 z m 29.839036,-2.767805 c -0.481555,-0.04816 -0.861205,-0.153299 -1.28562,-0.355981 -0.675843,-0.322749 -1.233155,-0.850176 -1.675017,-1.58519 -0.31325,-0.521088 -0.855535,-1.721661 -1.222389,-2.706283 -0.261938,-0.703026 -0.217189,-0.555674 -1.266036,-4.169373 -0.356832,-1.229456 -0.47042,-1.592782 -0.673813,-2.155314 -0.268063,-0.741409 -0.591589,-1.444631 -0.831984,-1.808428 -0.345783,-0.523279 -0.839318,-0.802988 -1.579354,-0.895098 -0.231492,-0.02881 -0.834106,-0.02891 -1.049331,-1.56e-4 -0.344677,0.04606 -0.603554,0.112075 -0.970903,0.247682 -0.483097,0.178332 -0.754599,0.321752 -0.943347,0.498316 -0.06592,0.06167 -0.18442,0.219236 -0.18442,0.245228 0,0.0057 -0.03327,0.06576 -0.07389,0.133432 -0.158396,0.263777 -0.263393,0.608398 -0.307637,1.009702 -0.0191,0.173329 -0.01926,0.85119 -2.35e-4,1.049332 0.09113,0.949069 0.336166,2.05133 0.739517,3.326609 0.370187,1.170426 0.549193,1.817095 0.730822,2.640083 0.275348,1.247642 0.371185,2.313694 0.278949,3.102974 -0.02059,0.176245 -0.04625,0.324782 -0.05803,0.335627 -0.0191,0.01765 -0.509221,0.07904 -0.803213,0.100634 -0.24159,0.01773 -0.883453,0.0082 -1.086771,-0.01617 -0.582806,-0.06983 -1.09194,-0.219556 -1.496133,-0.439975 C 48.046853,72.641877 47.765477,72.434904 47.47673,72.152919 47.060792,71.746737 46.750671,71.3027 46.505916,70.76289 46.10207,69.872195 45.778723,68.959725 45.562461,68.100486 c -0.225359,-0.895365 -0.42299,-1.86541 -0.649326,-3.187077 -0.178115,-1.040095 -0.303046,-1.674707 -0.441212,-2.241224 -0.132876,-0.54485 -0.20517,-0.759999 -0.478892,-1.425203 -0.208174,-0.50591 -0.286745,-0.726108 -0.354846,-0.99448 -0.0295,-0.11616 -0.03106,-0.135181 -0.03052,-0.368078 5.29e-4,-0.268612 0.01156,-0.395673 0.08886,-1.032587 0.09367,-0.771871 0.16284,-1.478838 0.163837,-1.674472 2.65e-4,-0.05832 -0.01042,-0.191447 -0.02392,-0.29582 -0.09962,-0.773469 -0.282387,-1.747452 -0.619,-3.298708 -0.422568,-1.947387 -0.629487,-3.293955 -0.699591,-4.552645 -0.01691,-0.303546 -0.0074,-1.021325 0.01685,-1.268927 0.07523,-0.76891 0.219944,-1.411738 0.466155,-2.070756 0.107696,-0.288258 0.221329,-0.476869 0.398626,-0.661666 0.332091,-0.346131 0.751009,-0.567127 1.379711,-0.727855 0.405076,-0.103558 0.731386,-0.144052 1.160968,-0.144076 0.4947,0 0.857154,0.05051 1.343675,0.187356 0.123195,0.03464 0.151395,0.04762 0.261953,0.120427 0.295428,0.194559 0.525499,0.382982 0.755708,0.618914 0.312186,0.319954 0.501731,0.634589 0.591477,0.981813 0.05022,0.194289 0.06022,0.32697 0.04537,0.601261 -0.02974,0.547919 -0.111604,1.390603 -0.213196,2.194155 -0.0341,0.269565 -0.180237,1.690966 -0.272613,2.651241 -0.04841,0.503157 -0.04841,0.951024 -1.1e-5,1.512605 0.08329,0.96654 0.247049,1.759469 0.485757,2.352135 0.162851,0.404335 0.479728,0.955063 0.640126,1.112522 0.44796,0.439749 1.375792,0.680615 2.624286,0.681266 0.36478,1.91e-4 0.507721,-0.0091 0.763594,-0.04984 0.673541,-0.10713 1.095967,-0.397912 1.206628,-0.830593 0.02724,-0.106537 0.09312,-0.504507 0.116453,-0.703552 0.08871,-0.756726 0.0968,-1.705116 0.02294,-2.690315 -0.05234,-0.69816 -0.152062,-1.516058 -0.284463,-2.333098 -0.365451,-2.2552 -0.654759,-4.856816 -0.688346,-6.189952 -0.009,-0.356099 0.01773,-0.562196 0.109189,-0.842816 0.193299,-0.5931 0.614214,-1.032183 1.321524,-1.378565 0.578653,-0.283373 1.098407,-0.393707 1.727303,-0.366666 0.213569,0.0092 0.38187,0.03229 0.566718,0.07777 0.382987,0.09425 0.669374,0.268987 0.859509,0.524408 0.05159,0.06931 0.08427,0.135784 0.177969,0.362134 0.645863,1.560087 1.048198,2.872295 1.194383,3.895428 0.12132,0.849094 0.237739,2.713266 0.285478,4.571303 0.04454,1.733763 0.195076,3.532655 0.396072,4.733168 0.08228,0.491381 0.0916,0.521078 0.220292,0.700854 0.171707,0.239889 0.47708,0.537972 1.003119,0.979177 0.187449,0.15722 0.472669,0.446042 0.588104,0.595528 0.173207,0.224311 0.272855,0.416825 0.298636,0.576969 0.03307,0.205308 -0.05247,0.494632 -0.231326,0.78261 -0.03101,0.04997 -0.11349,0.168018 -0.183234,0.262336 -0.171707,0.232193 -0.32378,0.461224 -0.374832,0.564518 l -0.04223,0.08543 -0.0099,0.2352 c -0.01098,0.259297 0.0039,0.775588 0.03238,1.117091 0.108976,1.311739 0.434469,2.86309 0.98369,4.688514 0.115779,0.384794 0.191569,0.622863 0.46736,1.467952 0.813101,2.49153 1.275837,4.086463 1.522236,5.246668 0.05154,0.242705 0.12832,0.669688 0.121539,0.675919 -0.02064,0.01897 -0.45629,0.150734 -0.695049,0.210244 -0.418965,0.104425 -0.705915,0.141422 -1.133056,0.146087 -0.181123,0.0019 -0.349406,0.0016 -0.373966,-0.0011 z m 24.084835,-2.254504 c -0.142131,-0.01823 -0.354158,-0.06203 -0.474821,-0.09806 -0.42479,-0.126828 -0.492741,-0.152678 -0.663526,-0.252423 C 84.897681,71.550067 84.585163,71.274475 84.448913,71.088741 84.330245,70.92698 84.24484,70.74954 84.197255,70.5659 84.187755,70.52925 84.159425,70.366468 84.134325,70.20411 83.80933,68.103504 82.858516,64.217867 81.16931,58.087164 81.03736,57.608266 80.879481,57.028065 80.818471,56.797822 79.683235,52.51378 78.631982,47.076571 77.762287,40.990839 77.658536,40.264846 77.6557,40.236426 77.671227,40.078697 c 0.05569,-0.565846 0.417103,-1.118493 1.059187,-1.619629 0.586917,-0.458076 1.193146,-0.715247 1.915947,-0.812767 0.19808,-0.0267 0.610663,-0.02685 0.775834,-2.65e-4 0.498127,0.08021 0.867803,0.290781 1.152925,0.656724 0.303919,0.390064 0.495165,0.86121 0.576837,1.421073 0.02392,0.164007 0.03719,0.393411 0.05642,0.976774 0.02323,0.703452 0.08964,1.468433 0.196301,2.260531 0.129355,0.960608 0.304107,1.663042 0.569005,2.287209 0.08352,0.196781 0.118745,0.254926 0.207432,0.342349 0.233551,0.230225 0.565769,0.201796 0.998352,-0.08543 0.26398,-0.175284 0.639348,-0.524925 0.975599,-0.908732 0.08875,-0.101306 0.211781,-0.230042 0.273394,-0.286078 0.456003,-0.414733 1.034318,-1.082948 1.752307,-2.024687 0.474998,-0.623029 0.727741,-0.938224 0.993025,-1.238404 0.619394,-0.700886 1.208607,-1.198868 1.59919,-1.351575 0.497869,-0.194659 1.068177,-0.153151 1.723036,0.125407 0.140353,0.0597 0.537178,0.26157 0.710908,0.361651 0.440917,0.253994 0.732596,0.525385 0.874399,0.81358 0.07245,0.147247 0.0906,0.218351 0.09734,0.381367 0.0073,0.176228 -0.007,0.253499 -0.07678,0.414501 -0.272218,0.62831 -0.719216,1.314623 -1.29049,1.981396 -0.307991,0.359476 -0.844782,0.9132 -1.230754,1.269575 -0.511303,0.47209 -1.170919,1.019824 -1.841915,1.529486 -1.226041,0.93125 -2.200604,1.717485 -2.890805,2.33219 -0.534137,0.475702 -0.958773,0.914585 -1.025246,1.05964 -0.112156,0.244744 0.04932,0.677115 0.428257,1.14667 0.362703,0.449451 0.631784,0.734192 1.718538,1.818554 0.553793,0.552578 1.05375,1.059938 1.111018,1.127481 0.116231,0.137074 0.201128,0.207789 0.702889,0.585453 0.572547,0.430944 1.78816,1.313101 2.561936,1.859167 1.558333,1.099744 2.691098,2.017196 3.52755,2.857033 0.830185,0.833548 1.442888,1.729505 1.858625,2.717884 0.07522,0.178844 0.09328,0.260418 0.08553,0.386294 -0.01627,0.263932 -0.16492,0.54206 -0.453458,0.848398 -0.46251,0.491041 -1.011232,0.821512 -1.678055,1.010618 -0.536021,0.152016 -1.017614,0.162594 -1.526178,0.03351 -0.260955,-0.06623 -0.548959,-0.181851 -0.706196,-0.283504 -0.810989,-0.524297 -2.090107,-1.618364 -3.786627,-3.238814 -0.407783,-0.389505 -2.542113,-2.485937 -3.373888,-3.313984 -0.342742,-0.341206 -0.42799,-0.420647 -0.434155,-0.404581 -0.01299,0.03386 0.0039,0.727074 0.02278,0.922169 0.02656,0.277862 0.05841,0.52642 0.101608,0.792588 0.324343,1.998305 1.223044,4.761319 2.730468,8.394665 0.151824,0.365953 0.266142,0.9008 0.329257,1.540511 0.02421,0.245507 0.02778,0.809016 0.0062,0.98236 -0.02082,0.167291 -0.06504,0.357907 -0.110055,0.474435 -0.02135,0.05526 -0.06152,0.163257 -0.08929,0.240005 -0.19648,0.543206 -0.546883,0.976499 -0.994565,1.229819 -0.131998,0.07468 -0.407078,0.19721 -0.544112,0.242348 -0.131419,0.04331 -0.330137,0.08649 -0.465622,0.101216 -0.144764,0.01572 -0.444417,0.01283 -0.588903,-0.0057 z M 77.425796,69.31604 c -0.455465,-0.04003 -0.77158,-0.137956 -1.027009,-0.318068 -0.166894,-0.117682 -0.32059,-0.303701 -0.40596,-0.491328 -0.07737,-0.170034 -0.233928,-0.646503 -0.340711,-1.036864 -0.279504,-1.021796 -0.48062,-2.172327 -0.67615,-3.868029 -0.02763,-0.239448 -0.0605,-0.513225 -0.07308,-0.60839 -0.232199,-1.755691 -0.595719,-3.123154 -1.096157,-4.12342 -0.04263,-0.08521 -0.08162,-0.150516 -0.08664,-0.145122 -0.01709,0.01836 -0.565382,1.551991 -0.799462,2.236163 -0.29711,0.868399 -0.352188,1.027289 -0.47042,1.357012 -0.07045,0.196469 -0.177313,0.487831 -0.237474,0.647459 -0.06016,0.159633 -0.13303,0.35806 -0.161928,0.440946 -0.163347,0.46851 -0.413175,1.082981 -0.703486,1.730283 -0.376985,0.840567 -0.776086,1.59403 -1.153026,2.176809 -0.21182,0.327501 -0.451339,0.541207 -0.800366,0.714138 -0.255897,0.126788 -0.486283,0.197498 -0.826071,0.253545 -0.188227,0.03107 -0.678738,0.02803 -0.893052,-0.0055 -0.381312,-0.05968 -0.727635,-0.186388 -1.00468,-0.367591 -0.222115,-0.145266 -0.620706,-0.483202 -0.847034,-0.718131 -1.186433,-1.231496 -1.997853,-3.251836 -2.434166,-6.0608 -0.08484,-0.546192 -0.445444,-3.135025 -0.614198,-4.409435 -0.291369,-2.200391 -0.376893,-3.002609 -0.430204,-4.035473 -0.07034,-1.362737 -0.07267,-3.276167 -0.0055,-4.532227 0.07491,-1.401074 0.238924,-2.700877 0.486077,-3.852172 0.09297,-0.433068 0.156654,-0.573874 0.345396,-0.763641 0.149321,-0.150126 0.284713,-0.236224 0.515837,-0.328027 0.51704,-0.205367 1.424708,-0.256823 1.980927,-0.11231 0.256152,0.06656 0.471295,0.178118 0.630364,0.326869 0.217906,0.203773 0.299069,0.374898 0.43761,0.922656 0.234805,0.928342 0.3465,2.152121 0.327068,3.583359 -0.0114,0.840593 -0.04057,1.406893 -0.129834,2.522868 -0.146254,1.828184 -0.206886,3.256826 -0.179885,4.238302 0.01548,0.562927 0.0316,0.790072 0.09066,1.276285 0.02812,0.231595 0.06777,0.677107 0.117224,1.317246 0.07919,1.024999 0.22618,2.047319 0.401978,2.795655 0.109037,0.464145 0.263286,0.910525 0.482441,1.396101 0.08214,0.181985 0.226593,0.472151 0.253118,0.508428 0.01175,0.01606 0.0264,-0.0053 0.104494,-0.152765 0.720732,-1.360842 1.39108,-3.497568 1.965985,-6.26654 0.03699,-0.178051 0.145386,-0.718067 0.240934,-1.200032 0.169211,-0.853542 0.324604,-1.576304 0.463208,-2.154489 0.4788,-1.997266 1.022696,-3.596043 1.594854,-4.688019 0.09293,-0.177366 0.119599,-0.218387 0.191672,-0.294836 0.317343,-0.336587 0.87395,-0.554753 1.698594,-0.665767 0.09418,-0.0127 0.254118,-0.02611 0.355422,-0.02984 0.330435,-0.01214 0.571612,0.02832 0.779146,0.130831 0.09257,0.04571 0.130593,0.07244 0.195358,0.137265 0.04557,0.04562 0.09621,0.110239 0.116856,0.149082 0.04689,0.08826 0.120962,0.29454 0.301814,0.840681 0.783145,2.364898 1.521243,5.480406 2.257233,9.527725 0.73942,4.066227 1.541074,7.970092 1.938724,9.441131 l 0.06414,0.237302 2.65e-4,0.20652 c 2.64e-4,0.160486 -0.0044,0.227531 -0.02029,0.300815 -0.06127,0.279882 -0.163801,0.486835 -0.365134,0.737084 -0.545921,0.678528 -1.356743,1.063108 -2.270899,1.077107 -0.12893,0.0019 -0.257026,0.0016 -0.284656,-0.0011 z M 69.483231,44.585064 c -0.673074,-0.04821 -1.056512,-0.188924 -1.367482,-0.501906 -0.215202,-0.216593 -0.355663,-0.472377 -0.462901,-0.842948 -0.177361,-0.612883 -0.222393,-1.125283 -0.151569,-1.724701 0.0062,-0.05219 0.01656,-0.205404 0.02312,-0.340476 0.04601,-0.946201 0.321474,-2.916038 0.809495,-5.788082 0.297738,-1.752219 0.424808,-2.777184 0.49823,-4.018725 0.01916,-0.323928 0.01926,-1.340618 1.56e-4,-1.59633 -0.06457,-0.864448 -0.177574,-1.361438 -0.500863,-2.202698 -0.640989,-1.667979 -1.825517,-3.832877 -3.754403,-6.861758 -1.407757,-2.210554 -2.317209,-3.77429 -3.096861,-5.324811 -0.635131,-1.26312 -1.058252,-2.286149 -1.300356,-3.144052 -0.07056,-0.250027 -0.09036,-0.364536 -0.09036,-0.522533 0,-0.582638 0.358034,-1.103349 1.099761,-1.599459 0.544426,-0.3641493 1.01744,-0.5729314 1.43813,-0.6347696 0.09291,-0.013671 0.16986,-0.016806 0.303125,-0.012446 0.387891,0.01274 0.63443,0.1238425 1.094558,0.4932927 0.655713,0.5264879 1.270875,1.3548849 1.817379,2.4473519 0.381061,0.761737 1.422514,3.129132 2.130263,4.842433 0.572167,1.385096 1.194196,2.491047 1.831851,3.256993 0.142664,0.171369 0.34117,0.3858 0.455282,0.491808 l 0.09342,0.0868 0.06047,-0.120536 c 0.342366,-0.682442 0.695873,-2.167201 1.033353,-4.340198 0.02763,-0.178052 0.09338,-0.622624 0.146064,-0.987938 0.05268,-0.365311 0.125449,-0.840024 0.16171,-1.054916 0.402039,-2.382373 0.987414,-4.054763 1.755453,-5.0152581 0.0625,-0.078159 0.184411,-0.2124326 0.270914,-0.2983864 0.487611,-0.4845078 1.037033,-0.7627815 1.708839,-0.8655065 0.197508,-0.030182 0.554489,-0.041353 0.731603,-0.022831 0.410853,0.04292 0.777927,0.1869398 1.065246,0.4178633 0.332812,0.2674844 0.465555,0.6552986 0.385148,1.1251861 -0.0341,0.1992626 -1.024047,4.1466306 -1.698921,6.7743356 -0.869224,3.384446 -1.590247,6.05696 -2.03517,7.543492 -0.131326,0.438761 -0.169061,0.731032 -0.158915,1.230729 0.006,0.297587 0.0199,0.44195 0.06422,0.669787 0.152172,0.781915 0.529778,1.466687 1.15535,2.095196 0.18769,0.188566 0.227874,0.249169 0.276509,0.416997 0.08398,0.289791 0.06582,0.782258 -0.04926,1.335604 -0.07625,0.366633 -0.08167,0.383939 -0.13517,0.431204 -0.159951,0.141316 -0.506026,0.353811 -1.006751,0.618167 -0.413549,0.218326 -0.596092,0.340404 -0.796639,0.532764 -0.153455,0.147182 -0.252237,0.275931 -0.326191,0.425129 -0.10304,0.207869 -0.09779,0.175498 -0.158385,0.976771 -0.501697,6.634256 -0.783592,9.8798 -0.891953,10.269325 -0.08159,0.293258 -0.307404,0.578058 -0.652743,0.823229 -0.131656,0.09347 -0.394983,0.249729 -0.524517,0.311242 -0.345538,0.164102 -0.795654,0.238106 -1.250268,0.205554 z M 6.4458336,42.351872 c -0.07939,-0.0058 -0.1631003,-0.01558 -0.1860225,-0.02175 C 6.1437983,42.298863 5.7343889,41.984906 5.187744,41.507947 L 4.993574,41.338529 4.9073932,41.016768 C 3.6614,36.364781 2.8039992,30.540269 2.3597863,23.710309 2.2043686,21.320689 2.1609938,20.223215 2.185362,19.296968 c 0.022014,-0.836746 0.067787,-1.382543 0.163039,-1.944063 0.058998,-0.347794 0.097206,-0.508164 0.2021365,-0.848397 0.095997,-0.311273 0.1249759,-0.393817 0.1771763,-0.504675 0.04172,-0.0886 0.045836,-0.103559 0.029794,-0.108321 C 2.6668739,15.864612 2.2894966,15.818423 1.929571,15.79015 1.4876848,15.755411 1.1584818,15.709272 0.92657922,15.649506 0.80095951,15.61712 0.79916625,15.616189 0.71381013,15.539132 0.57052488,15.409753 0.40158334,15.199604 0.29705499,15.020729 0.08924336,14.6651 -0.01630163,14.207482 0.00204693,13.741636 0.02394329,13.185692 0.19685011,12.610511 0.43866554,12.289195 0.52105743,12.179718 0.658372,12.046071 0.75387964,11.982406 0.96849147,11.839337 1.9934079,11.303878 2.470983,11.085316 4.8089418,10.015354 7.1851884,9.4395417 9.7493417,9.3216226 c 1.8251893,-0.08394 3.9238643,0.099301 5.6914793,0.4969335 2.79969,0.6298059 5.318159,1.8334399 7.609387,3.6366969 0.202024,0.159003 0.6895,0.56305 0.711535,0.589762 0.01698,0.02058 0.08778,0.313595 0.141136,0.584088 0.218051,1.1055 0.2591,2.154124 0.128694,3.287541 -0.07267,0.631629 -0.216053,1.323939 -0.368098,1.777355 -0.164205,0.489676 -0.403994,0.967222 -0.769508,1.53251 -0.07146,0.110516 -0.189679,0.293869 -0.26271,0.407456 -0.450958,0.701385 -0.980227,1.45132 -1.220723,1.729681 -0.325153,0.376349 -0.816513,0.843689 -1.379953,1.312484 -0.431202,0.358774 -1.824728,1.460579 -2.478214,1.959429 -0.396611,0.302757 -1.038254,0.712741 -1.82517,1.166205 -0.645029,0.371699 -1.643822,0.95668 -2.182392,1.278184 -0.141213,0.08431 -0.414989,0.236144 -0.60839,0.337418 -1.066363,0.558424 -3.0209501,1.572605 -3.8233714,1.983843 l -0.1451206,0.07438 0.00348,0.105386 c 0.021352,0.649541 0.2380697,1.672001 0.6103117,2.879424 0.040696,0.132004 0.1614145,0.501225 0.2682632,0.820493 0.3485421,1.041451 0.4946801,1.557949 0.6237971,2.204717 0.0958,0.479892 0.138449,0.835077 0.148104,1.233522 0.0079,0.326628 -0.0018,0.438457 -0.05675,0.653045 -0.162149,0.63321 -0.48984,1.206202 -0.980494,1.714452 -0.7156891,0.741362 -1.5114479,1.152042 -2.4307009,1.254444 -0.1535616,0.01709 -0.5404449,0.02297 -0.7080826,0.01077 z M 10.329826,25.613744 c 1.027899,-0.107943 2.023061,-0.465625 3.053115,-1.097347 1.224042,-0.750693 2.505621,-1.923519 3.387576,-3.100097 0.918741,-1.225662 1.486983,-2.530145 1.706818,-3.918259 0.04119,-0.260105 0.05623,-0.396418 0.04491,-0.407118 -0.01081,-0.01024 -0.351845,-0.200502 -0.735449,-0.410338 -1.368697,-0.7487 -2.731279,-1.422362 -3.482896,-1.721944 -0.859162,-0.342449 -1.875143,-0.60426 -3.030789,-0.781017 -0.982978,-0.15035 -1.6116151,-0.198259 -2.2158803,-0.168881 -0.8761109,0.04258 -1.5837506,0.187191 -2.3526291,0.480716 -0.1245427,0.04753 -0.1534926,0.06269 -0.1534926,0.08032 0,0.0315 0.1107069,0.132456 0.2455886,0.223898 0.3102417,0.210331 0.8035263,0.655637 0.9368245,0.845703 0.1647886,0.23497 0.1963099,0.371257 0.1949285,0.842816 -0.00114,0.392561 -0.045949,0.799225 -0.1445017,1.31167 -0.081349,0.422989 -0.1329172,0.762257 -0.1739205,1.144222 -0.033523,0.312295 -0.036879,0.9034 -0.00636,1.121893 0.035165,0.251786 0.046816,0.689747 0.031921,1.199866 -0.00736,0.251821 -0.020683,0.588463 -0.029618,0.748097 -0.035601,0.635989 -0.04173,0.856624 -0.035669,1.283762 0.010123,0.713099 0.06752,1.19016 0.1763078,1.46544 0.1430926,0.362091 0.3795073,0.597988 0.7228773,0.721297 0.1482535,0.05324 0.5103561,0.115449 0.8165905,0.140294 0.082886,0.0067 0.1733077,0.01411 0.2009365,0.01637 0.1153826,0.0095 0.6869645,-0.005 0.8428165,-0.02136 z m 23.727225,13.907351 c -0.25814,-0.02513 -0.397215,-0.05062 -0.602807,-0.110547 -0.261781,-0.0763 -0.766854,-0.280363 -1.373064,-0.554736 -0.374679,-0.169579 -0.566777,-0.244979 -0.734041,-0.288106 -0.432913,-0.111623 -0.690892,-0.06003 -1.414863,0.282952 -0.635287,0.300969 -0.959224,0.409898 -1.218978,0.409898 -0.180459,0 -0.290245,-0.04008 -0.459804,-0.167841 -0.293533,-0.221184 -0.391833,-0.531976 -0.464173,-1.467557 -0.0095,-0.122794 -0.02979,-0.446805 -0.0451,-0.720023 -0.0315,-0.562198 -0.05197,-0.856466 -0.08426,-1.211198 -0.154178,-1.693999 -0.422074,-2.60659 -0.765177,-2.60659 -0.18547,0 -0.283371,0.321974 -0.339429,1.116313 -0.02683,0.380268 -0.07592,0.733291 -0.123262,0.886575 -0.02039,0.06601 -0.02786,0.07713 -0.06122,0.09107 -0.186307,0.07784 -0.919391,-0.142227 -1.365605,-0.409951 -0.284041,-0.170423 -0.573029,-0.463597 -0.928324,-0.941765 -0.729028,-0.981155 -1.499078,-2.56375 -1.835857,-3.77303 -0.275274,-0.988432 -0.322893,-1.704388 -0.18376,-2.762877 0.466598,-3.549777 2.479813,-7.610389 4.682289,-9.444089 1.008701,-0.839808 2.567638,-1.57548 4.041121,-1.907037 0.734665,-0.165312 1.117801,-0.202711 2.076271,-0.202676 0.990349,0 1.887762,0.06162 2.531577,0.173729 0.535263,0.09321 1.53087,0.40831 2.27415,0.719754 1.844389,0.772826 3.441095,1.918217 4.663035,3.345004 0.877,1.024024 1.684251,2.39323 2.195957,3.724641 0.839077,2.183203 1.029368,4.394443 0.546293,6.347966 -0.102757,0.415538 -0.237236,0.771566 -0.461717,1.222366 -0.540368,1.085165 -1.34415,2.07845 -2.082024,2.572894 -0.241901,0.162094 -0.422349,0.245608 -0.530252,0.245401 -0.102237,-1.9e-4 -0.188869,-0.06753 -0.242884,-0.188783 -0.07164,-0.160808 -0.11426,-0.419562 -0.164676,-0.999694 -0.06328,-0.7283 -0.126791,-1.01238 -0.238826,-1.068302 -0.0344,-0.0172 -0.04179,-0.01738 -0.07814,-0.0024 -0.07921,0.03302 -0.164886,0.142309 -0.290022,0.369884 -0.381048,0.693007 -0.748132,1.89433 -0.839162,2.746269 -0.01921,0.179564 -0.0082,0.52045 0.02191,0.680726 0.02822,0.150096 0.08158,0.359403 0.163014,0.639325 0.15521,0.533519 0.237832,0.962114 0.224899,1.166619 -0.01543,0.244329 -0.08076,0.334012 -0.33217,0.456207 -0.330224,0.160506 -0.466204,0.17649 -0.915675,0.107645 -0.37719,-0.05777 -0.855759,-0.198561 -1.364492,-0.401411 -0.539021,-0.214932 -0.871454,-0.298686 -1.230808,-0.310105 -0.151408,-0.0049 -0.215127,-0.0019 -0.306964,0.01333 -0.245408,0.04101 -0.440544,0.137104 -0.601545,0.296151 -0.218562,0.215917 -0.352563,0.488859 -0.464518,0.94618 -0.07893,0.322394 -0.133559,0.466825 -0.233389,0.616987 -0.137633,0.207033 -0.383291,0.325071 -0.742128,0.356588 -0.12354,0.01087 -0.218665,0.01214 -0.301406,0.0039 z m -2.489377,-5.011183 c 0.08289,-0.0096 0.331545,-0.04199 0.552574,-0.07194 0.620667,-0.08415 1.27283,-0.156159 1.81959,-0.200927 0.764666,-0.06261 1.128595,-0.155104 1.365675,-0.347075 0.171426,-0.138816 0.25442,-0.319748 0.282545,-0.615989 0.05584,-0.588128 -0.280566,-1.212207 -0.86558,-1.605783 -0.547973,-0.368651 -1.274515,-0.495796 -1.92686,-0.337198 -0.742102,0.18043 -1.413244,0.734695 -1.840633,1.520107 -0.332504,0.611043 -0.415184,1.095196 -0.234987,1.376011 0.0462,0.072 0.133326,0.149244 0.214606,0.190278 0.07096,0.03581 0.221552,0.09361 0.265393,0.101846 0.06037,0.01132 0.225345,0.0071 0.367677,-0.0093 z m 6.759277,-2.918917 c 0.296877,-0.02196 0.592128,-0.07457 1.030696,-0.183642 0.927884,-0.230756 1.729028,-0.521924 2.25126,-0.818197 0.133975,-0.07601 0.389537,-0.247252 0.496762,-0.332863 0.486453,-0.388416 0.825031,-0.963559 0.910558,-1.54675 0.02352,-0.16021 0.01736,-0.51925 -0.01162,-0.679089 -0.07893,-0.435406 -0.294952,-0.982304 -0.565516,-1.431707 -0.692697,-1.150546 -2.232176,-2.711734 -3.085128,-3.128652 -0.392422,-0.19181 -0.896548,-0.282419 -1.501438,-0.269856 -0.390318,0.0081 -0.628818,0.04561 -0.913993,0.143715 -0.691738,0.237975 -1.217157,0.780087 -1.53068,1.579312 -0.173362,0.441931 -0.27624,0.937531 -0.325212,1.566674 -0.01939,0.249108 -0.01627,0.890848 0.0058,1.194452 0.04576,0.62921 0.139801,1.314131 0.225129,1.639695 0.117688,0.449045 0.273313,0.712374 0.64632,1.093615 0.48156,0.492185 0.940389,0.848494 1.28981,1.001607 0.345345,0.151329 0.66463,0.202216 1.077237,0.171686 z m -9.371449,-0.06688 c 0.468873,-0.02445 0.588327,-0.06135 0.859561,-0.265656 0.530778,-0.39981 0.817051,-0.955526 0.915301,-1.7768 0.03365,-0.281273 0.02577,-0.829896 -0.0177,-1.233526 -0.114991,-1.067671 -0.325749,-1.797223 -0.77558,-2.684733 -0.228164,-0.450162 -0.477443,-0.791983 -0.82687,-1.133844 -0.420102,-0.41101 -0.8946,-0.68523 -1.36551,-0.789166 -0.09871,-0.0218 -0.143245,-0.02465 -0.374372,-0.02411 -0.257058,5.03e-4 -0.264966,0.0015 -0.393244,0.03533 -0.221226,0.05866 -0.459843,0.190022 -0.683998,0.376554 -0.388638,0.32341 -0.742846,0.708211 -0.970728,1.054564 -0.438203,0.666023 -0.65478,1.426978 -0.749999,2.635149 -0.02774,0.351929 -0.02803,1.019076 -5.29e-4,1.261428 0.107006,0.943829 0.481709,1.519376 1.235418,1.897601 0.596272,0.299225 1.772897,0.590289 2.612435,0.646249 0.202316,0.01347 0.292232,0.01368 0.535831,0.0011 z m 22.03601,4.443175 c -1.240242,-0.06108 -2.412687,-0.301654 -3.533124,-0.724952 -0.324546,-0.122608 -0.566587,-0.281771 -0.810082,-0.532691 -0.33901,-0.349352 -0.496361,-0.728696 -0.509958,-1.229419 -0.0062,-0.227936 0.007,-0.387062 0.04767,-0.577071 0.169595,-0.791304 0.565308,-1.394631 1.156749,-1.76365 0.111713,-0.0697 0.411461,-0.221707 0.553621,-0.280754 0.279893,-0.116243 0.608107,-0.200581 0.990861,-0.254604 0.295236,-0.0417 0.474966,-0.05283 0.946311,-0.05875 0.577349,-0.0072 0.877455,0.0054 1.509578,0.06371 1.170539,0.107944 2.175489,0.08652 2.92742,-0.06242 0.423813,-0.08394 0.78541,-0.20471 1.080047,-0.360719 0.07405,-0.0392 0.158644,-0.0741 0.21286,-0.08779 0.303656,-0.0767 0.562847,-0.298053 0.79313,-0.677367 0.07069,-0.11643 0.07895,-0.171878 0.03366,-0.22575 -0.0146,-0.01736 -0.05546,-0.08179 -0.09081,-0.143185 -0.301763,-0.524059 -0.779954,-1.011902 -1.378508,-1.406332 -0.33662,-0.221824 -0.764303,-0.44455 -1.250265,-0.65111 -1.20007,-0.510079 -2.196841,-0.81333 -3.326618,-1.012058 -0.413765,-0.07278 -0.681804,-0.139277 -1.032589,-0.256152 -0.686783,-0.228831 -1.266122,-0.539393 -1.799547,-0.964674 -0.533339,-0.425213 -0.844822,-0.922205 -0.962442,-1.535637 -0.06708,-0.349837 -0.0633,-0.770905 0.01082,-1.206804 0.04326,-0.254398 0.07112,-0.344311 0.166201,-0.53636 0.299542,-0.605058 0.885005,-1.243439 1.792388,-1.954392 0.165417,-0.129604 0.224967,-0.173774 0.82607,-0.612691 1.104394,-0.806403 1.913388,-1.443778 2.187311,-1.723287 l 0.06632,-0.06766 -0.04204,-0.01754 c -0.0714,-0.02984 -0.295814,-0.09115 -0.442245,-0.120835 -0.321688,-0.06521 -0.670914,-0.09104 -1.110733,-0.08215 -0.359132,0.0073 -0.597762,0.02602 -1.038171,0.08156 -0.708653,0.08937 -0.903524,0.104856 -1.319335,0.104846 -0.588282,0 -0.979393,-0.06492 -1.343934,-0.22304 -0.124555,-0.05402 -0.279548,-0.171438 -0.471735,-0.357377 -0.2306,-0.223099 -0.377412,-0.420794 -0.497438,-0.669845 -0.280145,-0.581296 -0.283801,-1.204835 -0.01167,-1.992619 0.202425,-0.585994 0.489419,-1.029811 0.875675,-1.35415 0.308509,-0.259052 0.717988,-0.449956 1.149801,-0.536043 0.15739,-0.03136 0.188225,-0.03376 0.513505,-0.03983 0.645871,-0.0121 0.918831,-0.02646 1.609747,-0.08473 0.597008,-0.05037 0.79554,-0.0586 1.398707,-0.05795 1.59393,0.002 2.361735,0.06987 3.285404,0.291702 0.783013,0.188058 1.335587,0.397634 1.950102,0.739621 0.574605,0.319784 1.000222,0.715324 1.252726,1.164208 0.0725,0.128884 0.190556,0.395716 0.230259,0.520426 0.148746,0.467252 0.12904,0.976341 -0.05903,1.524671 -0.165327,0.482044 -0.573729,1.309211 -0.918762,1.860834 -0.308014,0.492445 -0.838768,1.232105 -1.398623,1.949129 -0.472698,0.605396 -1.05671,1.417982 -1.31535,1.830166 l -0.1012,0.161281 0.05545,0.03033 c 0.148585,0.08125 0.394133,0.301228 0.595304,0.533288 0.185738,0.214265 0.516736,0.493254 0.673888,0.567998 0.08553,0.04067 0.113969,0.04557 0.404854,0.06924 0.706172,0.05751 1.475797,0.224465 2.118738,0.459617 0.719264,0.26306 1.461575,0.66083 2.028363,1.086896 0.261299,0.196426 0.373226,0.293966 0.620563,0.540804 0.309353,0.30873 0.494328,0.533754 0.716208,0.871274 0.441242,0.671203 0.694215,1.345292 0.773702,2.061659 0.02204,0.198688 0.02484,0.588234 0.0056,0.779359 -0.100393,0.99745 -0.556632,1.97214 -1.389933,2.969388 -0.361384,0.432484 -0.894273,0.961045 -1.407109,1.39568 -0.863318,0.731662 -1.632816,1.246854 -2.500542,1.674144 -1.303601,0.641915 -2.686467,0.999487 -4.253153,1.099732 -0.24773,0.01587 -1.0088,0.02254 -1.244687,0.01087 z M 106.9247,30.473909 c -0.0855,-0.01243 -0.19545,-0.04909 -0.24255,-0.08081 -0.0229,-0.01543 -0.0995,-0.117763 -0.20221,-0.269999 -1.08959,-1.615597 -2.00101,-3.568564 -2.70881,-5.804389 -0.0943,-0.298025 -0.43295,-1.424366 -0.6628,-2.204718 -0.53405,-1.81317 -1.03503,-3.573762 -1.55487,-5.464351 -0.27198,-0.989143 -0.37029,-1.329819 -0.53475,-1.853082 -0.60397,-1.921638 -1.319581,-3.587315 -2.14017,-4.9815339 -0.06233,-0.1059048 -0.116831,-0.1887916 -0.121101,-0.184191 -0.01386,0.014944 -0.10791,0.2437802 -0.204346,0.4973309 -0.343834,0.904046 -0.66074,2.027194 -0.983352,3.485103 -0.07083,0.320087 -0.126285,0.595436 -0.46874,2.327512 -0.407649,2.06183 -0.753909,3.538024 -1.035586,4.415016 l -0.05737,0.17861 2.25e-4,0.156289 c 2.65e-4,0.189506 0.03381,0.367088 0.111575,0.591069 0.149418,0.430259 0.175009,0.532396 0.176347,0.703849 0.0011,0.128095 -0.01572,0.187189 -0.129645,0.457623 -0.236199,0.56082 -0.596456,1.073059 -1.035534,1.472427 -0.622558,0.566253 -1.132193,0.816677 -1.76633,0.867932 -0.261643,0.02117 -0.512489,-0.0034 -0.8575,-0.08491 -0.08903,-0.02097 -0.229685,-0.05133 -0.31257,-0.0675 -0.658606,-0.128444 -1.392466,-0.61182 -1.768295,-1.164741 -0.126215,-0.185681 -0.227629,-0.425698 -0.269587,-0.638018 -0.08207,-0.415311 -0.424819,-1.568331 -0.660354,-2.221459 -0.597762,-1.657598 -1.265956,-2.673826 -1.995856,-3.035404 -0.216947,-0.107467 -0.392204,-0.152764 -0.556489,-0.143817 -0.204124,0.01112 -0.321429,0.124645 -0.369146,0.357269 -0.05857,0.285496 0.04836,0.958286 0.29497,1.856341 0.08843,0.322002 0.12497,0.661942 0.102296,0.951657 -0.01675,0.213862 -0.03523,0.312785 -0.07953,0.425041 -0.161423,0.40923 -0.155814,1.150723 0.01714,2.268059 0.03895,0.251478 0.104356,0.603829 0.238381,1.283763 0.269239,1.365889 0.39431,2.158709 0.420025,2.662405 0.05254,1.029319 -0.673689,1.78804 -2.177491,2.274924 -0.640775,0.207459 -1.178244,0.29946 -1.657724,0.283757 -0.472677,-0.01548 -0.841123,-0.123951 -1.167859,-0.343831 -0.130793,-0.08802 -0.413188,-0.332346 -0.568168,-0.49158 -0.47219,-0.485149 -0.80977,-1.079881 -1.014817,-1.78786 -0.104959,-0.362398 -0.198656,-0.951702 -0.242648,-1.526158 -0.02803,-0.366138 -0.01622,-1.023499 0.02503,-1.39539 0.03283,-0.295793 0.427505,-3.464227 0.456085,-3.661504 0.102703,-0.709017 0.171294,-1.322827 0.220781,-1.975872 0.01685,-0.222222 0.01974,-0.398881 0.01905,-1.155386 -5.29e-4,-0.491177 -0.0068,-1.099008 -0.0141,-1.350736 -0.05006,-1.725854 -0.120105,-3.270378 -0.258956,-5.709939 C 80.99778,7.0619263 80.919284,5.1681675 80.90139,3.4938915 c -0.0053,-0.5000397 -0.0034,-0.7095963 0.0065,-0.807211 0.07119,-0.684427 0.470569,-1.1660294 1.209181,-1.4581198 0.384263,-0.1519614 0.886716,-0.25887099 1.370553,-0.29161999 0.69334,-0.0469383 1.253376,0.13713529 1.571057,0.51634559 0.100481,0.1199425 0.183597,0.2132949 0.337598,0.3791613 0.58227,0.6271309 1.174966,1.4225045 1.654887,2.2207787 0.203515,0.3385189 0.268804,0.4578099 0.753895,1.3774673 0.56902,1.078777 1.18356,2.4613005 1.833479,4.1247775 0.649056,1.6612719 1.238465,3.0666819 1.643325,3.9184149 l 0.07171,0.15086 0.150652,0.136537 c 0.180795,0.163848 0.655217,0.522725 0.711817,0.538448 0.109438,0.03038 0.164392,-10e-6 0.232128,-0.128443 0.192993,-0.365928 0.499547,-1.141159 0.693359,-1.753404 C 93.492315,11.309802 93.88492,9.6854433 94.092394,8.4838084 94.247295,7.58666 94.447489,6.7502081 94.74148,5.7717507 95.160696,4.3765417 95.609108,3.2763143 96.127097,2.3719979 96.588831,1.5658942 97.190739,0.99016529 98.044114,0.53836717 98.698011,0.19217529 99.565904,-8.3511924e-4 100.46496,2.7163183e-6 100.64265,1.6440352e-4 100.986,0.01612244 101.08474,0.02881243 l 0.0545,0.0070065 0.19821,0.40341445 c 0.99734,2.02988962 2.01436,4.62226962 3.15378,8.03899462 0.58935,1.767236 0.9351,2.874166 1.77308,5.676451 1.76796,5.912214 3.27274,10.126635 4.62609,12.956206 0.1861,0.389088 0.22135,0.499427 0.23313,0.729786 0.0142,0.277447 -0.0835,0.593343 -0.26722,0.864213 -0.27432,0.40442 -0.6288,0.743772 -1.02948,0.985542 -0.2557,0.154294 -0.48716,0.256516 -0.8763,0.387011 -0.94614,0.317294 -1.63874,0.452842 -2.02577,0.396468 z"
       id="path847" /></g></svg>
